<svg width="28" height="27" viewBox="0 0 28 27" fill="none" xmlns="http://www.w3.org/2000/svg">
<path d="M27.0353 6.95829C27.0363 6.78379 27.0029 6.61081 26.9369 6.44926C26.8709 6.28772 26.7737 6.14079 26.6508 6.01689L21.0289 0.395034C20.9051 0.272147 20.7581 0.174924 20.5966 0.108941C20.435 0.0429575 20.262 0.00951133 20.0876 0.0105202C19.9131 0.00951133 19.7401 0.0429575 19.5785 0.108941C19.417 0.174924 19.27 0.272147 19.1462 0.395034L15.3938 4.14736L0.901626 18.6396C0.778739 18.7635 0.681516 18.9104 0.615533 19.0719C0.549549 19.2335 0.516103 19.4065 0.517112 19.581V25.2028C0.517112 25.5545 0.656806 25.8917 0.905462 26.1404C1.15412 26.389 1.49137 26.5287 1.84302 26.5287H7.46488C7.65041 26.5388 7.836 26.5098 8.00959 26.4436C8.18319 26.3773 8.34093 26.2753 8.47257 26.1442L22.8852 11.652L26.6508 7.96598C26.7718 7.83748 26.8704 7.68957 26.9425 7.52843C26.9553 7.42274 26.9553 7.3159 26.9425 7.21021C26.9487 7.14849 26.9487 7.08631 26.9425 7.02459L27.0353 6.95829ZM6.92126 23.8769H3.16893V20.1246L16.3352 6.95829L20.0876 10.7106L6.92126 23.8769ZM21.9571 8.84108L18.2048 5.08876L20.0876 3.21922L23.8266 6.95829L21.9571 8.84108Z" fill="black"/>
</svg>
