<svg width="47" height="47" viewBox="0 0 47 47" fill="none" xmlns="http://www.w3.org/2000/svg">
<path opacity="0.4" d="M45.5 23.5C45.5 35.6502 35.6502 45.5 23.5 45.5C11.3497 45.5 1.5 35.6502 1.5 23.5C1.5 11.3497 11.3497 1.5 23.5 1.5C35.6502 1.5 45.5 11.3497 45.5 23.5Z" fill="#292D32" stroke="black" stroke-width="3"/>
<path d="M23.7625 21.7375V23.2375H25.2625H32.9C32.9597 23.2375 33.0254 23.2616 33.0819 23.3181C33.1384 23.3746 33.1625 23.4403 33.1625 23.5C33.1625 23.5597 33.1384 23.6254 33.0819 23.6819C33.0254 23.7384 32.9597 23.7625 32.9 23.7625H25.2625H23.7625V25.2625V32.9C23.7625 32.9597 23.7384 33.0254 23.6819 33.0819C23.6254 33.1384 23.5597 33.1625 23.5 33.1625C23.4403 33.1625 23.3746 33.1384 23.3181 33.0819C23.2616 33.0254 23.2375 32.9597 23.2375 32.9V25.2625V23.7625H21.7375H14.1C14.0403 23.7625 13.9746 23.7384 13.9181 23.6819C13.8616 23.6254 13.8375 23.5597 13.8375 23.5C13.8375 23.4403 13.8616 23.3746 13.9181 23.3181C13.9746 23.2616 14.0403 23.2375 14.1 23.2375H21.7375H23.2375V21.7375V14.1C23.2375 14.0403 23.2616 13.9746 23.3181 13.9181C23.3746 13.8616 23.4403 13.8375 23.5 13.8375C23.5597 13.8375 23.6254 13.8616 23.6819 13.9181C23.7384 13.9746 23.7625 14.0403 23.7625 14.1V21.7375Z" fill="#292D32" stroke="black" stroke-width="3"/>
</svg>
