<svg width="47" height="47" viewBox="0 0 47 47" fill="none" xmlns="http://www.w3.org/2000/svg">
<path opacity="0.4" d="M45.5 23.5C45.5 35.6502 35.6502 45.5 23.5 45.5C11.3497 45.5 1.5 35.6502 1.5 23.5C1.5 11.3497 11.3497 1.5 23.5 1.5C35.6502 1.5 45.5 11.3497 45.5 23.5Z" fill="#292D32" stroke="black" stroke-width="3"/>
<path d="M32.7117 23.7625H13.9118C13.8521 23.7625 13.7864 23.7384 13.7299 23.6819C13.6734 23.6254 13.6493 23.5597 13.6493 23.5C13.6493 23.4403 13.6734 23.3746 13.7299 23.3181C13.7864 23.2616 13.8521 23.2375 13.9118 23.2375H32.7117C32.7714 23.2375 32.8372 23.2616 32.8936 23.3181C32.9501 23.3746 32.9742 23.4403 32.9742 23.5C32.9742 23.6482 32.8573 23.7625 32.7117 23.7625Z" fill="#292D32" stroke="black" stroke-width="3"/>
</svg>
