<svg width="27" height="19" viewBox="0 0 27 19" fill="none" xmlns="http://www.w3.org/2000/svg">
<path d="M25.3943 6.57817L20.4071 5.8098L17.3678 0.844812C17.2083 0.584935 16.9844 0.370634 16.7178 0.222641C16.4512 0.0746487 16.1509 -0.00202426 15.8459 4.06305e-05L3.10843 0.101528C2.74092 0.104632 2.38349 0.222138 2.08582 0.437717C1.78816 0.653297 1.56503 0.956244 1.44745 1.30446L0 5.5966V15.465H3.03888C3.27512 16.2329 3.75133 16.9049 4.39759 17.3822C5.04385 17.8595 5.82612 18.1171 6.62956 18.1171C7.433 18.1171 8.21527 17.8595 8.86153 17.3822C9.50779 16.9049 9.984 16.2329 10.2202 15.465H15.856C16.0923 16.2329 16.5685 16.9049 17.2147 17.3822C17.861 17.8595 18.6433 18.1171 19.4467 18.1171C20.2501 18.1171 21.0324 17.8595 21.6787 17.3822C22.3249 16.9049 22.8011 16.2329 23.0374 15.465H26.5182V7.88861C26.5197 7.57156 26.4069 7.2646 26.2005 7.02394C25.9941 6.78328 25.7079 6.62503 25.3943 6.57817ZM11.4912 1.80256L15.86 1.76776L18.2964 5.74809L11.4912 5.74571V1.80256ZM3.12258 1.8693L9.72335 1.81671V5.74511L1.81655 5.74229L3.12258 1.8693ZM6.62956 16.3489C6.2362 16.3489 5.85167 16.2323 5.5246 16.0137C5.19754 15.7952 4.94262 15.4846 4.79209 15.1212C4.64155 14.7577 4.60217 14.3578 4.67891 13.972C4.75565 13.5862 4.94507 13.2319 5.22322 12.9537C5.50137 12.6756 5.85575 12.4861 6.24155 12.4094C6.62735 12.3327 7.02725 12.372 7.39067 12.5226C7.75408 12.6731 8.0647 12.928 8.28324 13.2551C8.50178 13.5822 8.61843 13.9667 8.61843 14.3601C8.61784 14.8874 8.40811 15.3929 8.03526 15.7657C7.6624 16.1386 7.15686 16.3483 6.62956 16.3489ZM19.4467 16.3489C19.0533 16.3489 18.6688 16.2323 18.3418 16.0137C18.0147 15.7952 17.7598 15.4846 17.6092 15.1212C17.4587 14.7577 17.4193 14.3578 17.4961 13.972C17.5728 13.5862 17.7622 13.2319 18.0404 12.9537C18.3185 12.6756 18.6729 12.4861 19.0587 12.4094C19.4445 12.3327 19.8444 12.372 20.2078 12.5226C20.5712 12.6731 20.8819 12.928 21.1004 13.2551C21.3189 13.5822 21.4356 13.9667 21.4356 14.3601C21.435 14.8874 21.2253 15.3929 20.8524 15.7657C20.4795 16.1386 19.974 16.3483 19.4467 16.3489ZM24.7504 13.6971H23.1437C22.9884 12.8296 22.5329 12.0443 21.8571 11.4787C21.1812 10.9131 20.328 10.6032 19.4467 10.6032C18.5654 10.6032 17.7122 10.9131 17.0363 11.4787C16.3605 12.0443 15.905 12.8296 15.7497 13.6971H10.3265C10.1712 12.8296 9.71579 12.0443 9.03994 11.4787C8.36408 10.9131 7.51086 10.6032 6.62956 10.6032C5.74827 10.6032 4.89504 10.9131 4.21918 11.4787C3.54333 12.0443 3.0879 12.8296 2.93259 13.6971H1.76788V7.51095L20.0282 7.54017L24.7504 8.26771V13.6971Z" fill="black"/>
</svg>
