<svg width="203" height="234" viewBox="0 0 203 234" fill="none" xmlns="http://www.w3.org/2000/svg">
<path d="M11.2739 212.923V20.6641C11.2739 15.6868 15.3088 11.6519 20.2861 11.6519H62.3428C67.32 11.6519 71.3549 15.6868 71.3549 20.6641V212.923C71.3549 217.901 67.32 221.935 62.3428 221.935H20.2861C15.3088 221.935 11.2739 217.901 11.2739 212.923Z" stroke="black" stroke-width="22.5304"/>
<path d="M131.436 212.923V20.6641C131.436 15.6868 135.47 11.6519 140.448 11.6519H182.505C187.482 11.6519 191.517 15.6868 191.517 20.6641V212.923C191.517 217.901 187.482 221.935 182.505 221.935H140.448C135.47 221.935 131.436 217.901 131.436 212.923Z" stroke="black" stroke-width="22.5304"/>
</svg>
