<svg width="75" height="56" viewBox="0 0 75 56" fill="none" xmlns="http://www.w3.org/2000/svg">
<path d="M71.3967 34.1985L43.6552 6.45717C40.3789 3.18094 35.0178 3.18094 31.7416 6.45717L4 34.1985" stroke="black" stroke-width="6.38225" stroke-miterlimit="10" stroke-linecap="round" stroke-linejoin="round"/>
<path d="M38.062 30.8106C34.8373 30.8106 34.223 32.1585 34.223 34.6495V35.7074H41.9009V34.6495C41.9009 32.1585 41.2867 30.8106 38.062 30.8106Z" fill="black"/>
<path d="M38.0592 43.3484C39.0959 43.3484 39.936 42.5083 39.936 41.4716C39.936 40.4351 39.0959 39.5948 38.0592 39.5948C37.0227 39.5948 36.1824 40.4351 36.1824 41.4716C36.1824 42.5083 37.0227 43.3484 38.0592 43.3484Z" fill="black"/>
<path d="M38.0619 21C28.6437 21 21 28.6437 21 38.0619C21 47.4801 28.6437 55.1239 38.0619 55.1239C47.4801 55.1239 55.1239 47.4801 55.1239 38.0619C55.1239 28.6437 47.4801 21 38.0619 21ZM47.2413 42.3274C47.2413 46.081 46.081 47.2413 42.3274 47.2413H33.7964C30.0428 47.2413 28.8826 46.081 28.8826 42.3274V40.6212C28.8826 37.7036 29.5822 36.3557 31.6637 35.8951V34.6495C31.6637 33.0628 31.6637 28.2513 38.0619 28.2513C44.4602 28.2513 44.4602 33.0628 44.4602 34.6495V35.8951C46.5417 36.3557 47.2413 37.7036 47.2413 40.6212V42.3274Z" fill="black"/>
</svg>
