<svg width="110" height="92" viewBox="0 0 110 92" fill="none" xmlns="http://www.w3.org/2000/svg">
<path d="M75.0001 28.5C81.6666 37.389 81.6666 54.611 75.0001 63.5" stroke="black" stroke-width="10" stroke-linecap="round" stroke-linejoin="round"/>
<path d="M90.0001 11.0001C109.94 30.0418 110.061 62.0855 90.0001 81" stroke="black" stroke-width="10" stroke-linecap="round" stroke-linejoin="round"/>
<path d="M5 60.794V31.2061C5 28.3308 7.2386 26 10 26H27.9289C29.255 26 30.5268 25.4515 31.4644 24.4751L46.4645 7.53529C49.6145 4.25559 55 6.57839 55 11.2166V80.7835C55 85.454 49.55 87.762 46.4195 84.417L31.4718 67.5725C30.5307 66.567 29.2395 66 27.8912 66H10C7.2386 66 5 63.669 5 60.794Z" stroke="black" stroke-width="10" stroke-linecap="round" stroke-linejoin="round"/>
</svg>
