<svg width="28" height="28" viewBox="0 0 28 28" fill="none" xmlns="http://www.w3.org/2000/svg">
<path d="M14 2.33334C11.6926 2.33334 9.43694 3.01758 7.51836 4.29953C5.59979 5.58148 4.10444 7.40356 3.22142 9.53537C2.3384 11.6672 2.10736 14.013 2.55752 16.2761C3.00768 18.5392 4.11882 20.618 5.75044 22.2496C7.38205 23.8812 9.46085 24.9923 11.724 25.4425C13.9871 25.8927 16.3329 25.6616 18.4647 24.7786C20.5965 23.8956 22.4185 22.4002 23.7005 20.4817C24.9824 18.5631 25.6667 16.3075 25.6667 14C25.6667 12.4679 25.3649 10.9508 24.7786 9.53537C24.1923 8.1199 23.3329 6.83378 22.2496 5.75043C21.1662 4.66708 19.8801 3.80772 18.4647 3.22142C17.0492 2.63511 15.5321 2.33334 14 2.33334ZM18.6667 15.1667H14C13.6906 15.1667 13.3939 15.0438 13.1751 14.825C12.9563 14.6062 12.8333 14.3094 12.8333 14V9.33334C12.8333 9.02392 12.9563 8.72718 13.1751 8.50839C13.3939 8.28959 13.6906 8.16668 14 8.16668C14.3094 8.16668 14.6062 8.28959 14.825 8.50839C15.0438 8.72718 15.1667 9.02392 15.1667 9.33334V12.8333H18.6667C18.9761 12.8333 19.2728 12.9563 19.4916 13.1751C19.7104 13.3938 19.8333 13.6906 19.8333 14C19.8333 14.3094 19.7104 14.6062 19.4916 14.825C19.2728 15.0438 18.9761 15.1667 18.6667 15.1667Z" fill="black"/>
</svg>
