<svg width="222" height="124" viewBox="0 0 222 124" fill="none" xmlns="http://www.w3.org/2000/svg">
<path d="M120 4L151 37L155.5 69L137 90H91.5L70 79.5L71.5 9.5L120 4Z" fill="white"/>
<path d="M9.18608 108.364H10.5952V116.068C10.5952 116.864 10.4077 117.574 10.0327 118.199C9.66146 118.82 9.13684 119.311 8.45881 119.67C7.78078 120.027 6.98532 120.205 6.07244 120.205C5.15956 120.205 4.36411 120.027 3.68608 119.67C3.00805 119.311 2.48153 118.82 2.10653 118.199C1.73532 117.574 1.54972 116.864 1.54972 116.068V108.364H2.95881V115.955C2.95881 116.523 3.08381 117.028 3.33381 117.472C3.58381 117.911 3.93987 118.258 4.40199 118.511C4.8679 118.761 5.42472 118.886 6.07244 118.886C6.72017 118.886 7.27699 118.761 7.7429 118.511C8.20881 118.258 8.56487 117.911 8.81108 117.472C9.06108 117.028 9.18608 116.523 9.18608 115.955V108.364ZM13.2273 123.273V111.273H14.5227V112.659H14.6818C14.7803 112.508 14.9167 112.314 15.0909 112.08C15.2689 111.841 15.5227 111.629 15.8523 111.443C16.1856 111.254 16.6364 111.159 17.2045 111.159C17.9394 111.159 18.5871 111.343 19.1477 111.71C19.7083 112.078 20.1458 112.598 20.4602 113.273C20.7746 113.947 20.9318 114.742 20.9318 115.659C20.9318 116.583 20.7746 117.384 20.4602 118.062C20.1458 118.737 19.7102 119.259 19.1534 119.631C18.5966 119.998 17.9545 120.182 17.2273 120.182C16.6667 120.182 16.2178 120.089 15.8807 119.903C15.5436 119.714 15.2841 119.5 15.1023 119.261C14.9205 119.019 14.7803 118.818 14.6818 118.659H14.5682V123.273H13.2273ZM14.5455 115.636C14.5455 116.295 14.642 116.877 14.8352 117.381C15.0284 117.881 15.3106 118.273 15.6818 118.557C16.053 118.837 16.5076 118.977 17.0455 118.977C17.6061 118.977 18.0739 118.83 18.4489 118.534C18.8277 118.235 19.1117 117.833 19.3011 117.33C19.4943 116.822 19.5909 116.258 19.5909 115.636C19.5909 115.023 19.4962 114.47 19.3068 113.977C19.1212 113.481 18.839 113.089 18.4602 112.801C18.0852 112.509 17.6136 112.364 17.0455 112.364C16.5 112.364 16.0417 112.502 15.6705 112.778C15.2992 113.051 15.0189 113.434 14.8295 113.926C14.6402 114.415 14.5455 114.985 14.5455 115.636ZM24.3182 108.364V120H22.9773V108.364H24.3182ZM30.3196 120.182C29.5317 120.182 28.8404 119.994 28.2457 119.619C27.6548 119.244 27.1927 118.72 26.8594 118.045C26.5298 117.371 26.3651 116.583 26.3651 115.682C26.3651 114.773 26.5298 113.979 26.8594 113.301C27.1927 112.623 27.6548 112.097 28.2457 111.722C28.8404 111.347 29.5317 111.159 30.3196 111.159C31.1075 111.159 31.7969 111.347 32.3878 111.722C32.9825 112.097 33.4446 112.623 33.7741 113.301C34.1075 113.979 34.2741 114.773 34.2741 115.682C34.2741 116.583 34.1075 117.371 33.7741 118.045C33.4446 118.72 32.9825 119.244 32.3878 119.619C31.7969 119.994 31.1075 120.182 30.3196 120.182ZM30.3196 118.977C30.9181 118.977 31.4105 118.824 31.7969 118.517C32.1832 118.21 32.4692 117.807 32.6548 117.307C32.8404 116.807 32.9332 116.265 32.9332 115.682C32.9332 115.098 32.8404 114.555 32.6548 114.051C32.4692 113.547 32.1832 113.14 31.7969 112.83C31.4105 112.519 30.9181 112.364 30.3196 112.364C29.7211 112.364 29.2287 112.519 28.8423 112.83C28.456 113.14 28.17 113.547 27.9844 114.051C27.7988 114.555 27.706 115.098 27.706 115.682C27.706 116.265 27.7988 116.807 27.9844 117.307C28.17 117.807 28.456 118.21 28.8423 118.517C29.2287 118.824 29.7211 118.977 30.3196 118.977ZM38.8892 120.205C38.3362 120.205 37.8343 120.1 37.3835 119.892C36.9328 119.68 36.5748 119.375 36.3097 118.977C36.0445 118.576 35.9119 118.091 35.9119 117.523C35.9119 117.023 36.0104 116.617 36.2074 116.307C36.4044 115.992 36.6676 115.746 36.9972 115.568C37.3267 115.39 37.6903 115.258 38.0881 115.17C38.4896 115.08 38.893 115.008 39.2983 114.955C39.8286 114.886 40.2585 114.835 40.5881 114.801C40.9214 114.763 41.1638 114.701 41.3153 114.614C41.4706 114.527 41.5483 114.375 41.5483 114.159V114.114C41.5483 113.553 41.3949 113.117 41.0881 112.807C40.785 112.496 40.3248 112.341 39.7074 112.341C39.0672 112.341 38.5653 112.481 38.2017 112.761C37.8381 113.042 37.5824 113.341 37.4347 113.659L36.1619 113.205C36.3892 112.674 36.6922 112.261 37.071 111.966C37.4536 111.667 37.8703 111.458 38.321 111.341C38.7756 111.22 39.2225 111.159 39.6619 111.159C39.9422 111.159 40.2642 111.193 40.6278 111.261C40.9953 111.326 41.3494 111.46 41.6903 111.665C42.035 111.869 42.321 112.178 42.5483 112.591C42.7756 113.004 42.8892 113.557 42.8892 114.25V120H41.5483V118.818H41.4801C41.3892 119.008 41.2377 119.21 41.0256 119.426C40.8134 119.642 40.5313 119.826 40.179 119.977C39.8267 120.129 39.3968 120.205 38.8892 120.205ZM39.0938 119C39.6241 119 40.071 118.896 40.4347 118.688C40.8021 118.479 41.0786 118.21 41.2642 117.881C41.4536 117.551 41.5483 117.205 41.5483 116.841V115.614C41.4915 115.682 41.3665 115.744 41.1733 115.801C40.9839 115.854 40.7642 115.902 40.5142 115.943C40.268 115.981 40.0275 116.015 39.7926 116.045C39.5616 116.072 39.3741 116.095 39.2301 116.114C38.8816 116.159 38.5559 116.233 38.2528 116.335C37.9536 116.434 37.7112 116.583 37.5256 116.784C37.3438 116.981 37.2528 117.25 37.2528 117.591C37.2528 118.057 37.4252 118.409 37.7699 118.648C38.1184 118.883 38.5597 119 39.0938 119ZM48.6321 120.182C47.9048 120.182 47.2628 119.998 46.706 119.631C46.1491 119.259 45.7135 118.737 45.3991 118.062C45.0848 117.384 44.9276 116.583 44.9276 115.659C44.9276 114.742 45.0848 113.947 45.3991 113.273C45.7135 112.598 46.151 112.078 46.7116 111.71C47.2723 111.343 47.92 111.159 48.6548 111.159C49.223 111.159 49.6719 111.254 50.0014 111.443C50.3348 111.629 50.5885 111.841 50.7628 112.08C50.9408 112.314 51.0791 112.508 51.1776 112.659H51.2912V108.364H52.6321V120H51.3366V118.659H51.1776C51.0791 118.818 50.9389 119.019 50.7571 119.261C50.5753 119.5 50.3158 119.714 49.9787 119.903C49.6416 120.089 49.1927 120.182 48.6321 120.182ZM48.8139 118.977C49.3518 118.977 49.8063 118.837 50.1776 118.557C50.5488 118.273 50.831 117.881 51.0241 117.381C51.2173 116.877 51.3139 116.295 51.3139 115.636C51.3139 114.985 51.2192 114.415 51.0298 113.926C50.8404 113.434 50.5601 113.051 50.1889 112.778C49.8177 112.502 49.3594 112.364 48.8139 112.364C48.2457 112.364 47.7723 112.509 47.3935 112.801C47.0185 113.089 46.7363 113.481 46.5469 113.977C46.3613 114.47 46.2685 115.023 46.2685 115.636C46.2685 116.258 46.3632 116.822 46.5526 117.33C46.7457 117.833 47.0298 118.235 47.4048 118.534C47.7836 118.83 48.2533 118.977 48.8139 118.977ZM62.3423 120.205C61.7893 120.205 61.2874 120.1 60.8366 119.892C60.3859 119.68 60.0279 119.375 59.7628 118.977C59.4976 118.576 59.3651 118.091 59.3651 117.523C59.3651 117.023 59.4635 116.617 59.6605 116.307C59.8575 115.992 60.1207 115.746 60.4503 115.568C60.7798 115.39 61.1435 115.258 61.5412 115.17C61.9427 115.08 62.3461 115.008 62.7514 114.955C63.2817 114.886 63.7116 114.835 64.0412 114.801C64.3745 114.763 64.617 114.701 64.7685 114.614C64.9238 114.527 65.0014 114.375 65.0014 114.159V114.114C65.0014 113.553 64.848 113.117 64.5412 112.807C64.2382 112.496 63.7779 112.341 63.1605 112.341C62.5204 112.341 62.0185 112.481 61.6548 112.761C61.2912 113.042 61.0355 113.341 60.8878 113.659L59.6151 113.205C59.8423 112.674 60.1454 112.261 60.5241 111.966C60.9067 111.667 61.3234 111.458 61.7741 111.341C62.2287 111.22 62.6757 111.159 63.1151 111.159C63.3954 111.159 63.7173 111.193 64.081 111.261C64.4484 111.326 64.8026 111.46 65.1435 111.665C65.4882 111.869 65.7741 112.178 66.0014 112.591C66.2287 113.004 66.3423 113.557 66.3423 114.25V120H65.0014V118.818H64.9332C64.8423 119.008 64.6908 119.21 64.4787 119.426C64.2666 119.642 63.9844 119.826 63.6321 119.977C63.2798 120.129 62.8499 120.205 62.3423 120.205ZM62.5469 119C63.0772 119 63.5241 118.896 63.8878 118.688C64.2552 118.479 64.5317 118.21 64.7173 117.881C64.9067 117.551 65.0014 117.205 65.0014 116.841V115.614C64.9446 115.682 64.8196 115.744 64.6264 115.801C64.437 115.854 64.2173 115.902 63.9673 115.943C63.7211 115.981 63.4806 116.015 63.2457 116.045C63.0147 116.072 62.8272 116.095 62.6832 116.114C62.3348 116.159 62.009 116.233 61.706 116.335C61.4067 116.434 61.1643 116.583 60.9787 116.784C60.7969 116.981 60.706 117.25 60.706 117.591C60.706 118.057 60.8783 118.409 61.223 118.648C61.5715 118.883 62.0128 119 62.5469 119ZM80.4261 111.273L77.1989 120H75.8352L72.608 111.273H74.0625L76.4716 118.227H76.5625L78.9716 111.273H80.4261ZM82.196 120V111.273H83.5369V120H82.196ZM82.8778 109.818C82.6165 109.818 82.3911 109.729 82.2017 109.551C82.0161 109.373 81.9233 109.159 81.9233 108.909C81.9233 108.659 82.0161 108.445 82.2017 108.267C82.3911 108.089 82.6165 108 82.8778 108C83.1392 108 83.3627 108.089 83.5483 108.267C83.7377 108.445 83.8324 108.659 83.8324 108.909C83.8324 109.159 83.7377 109.373 83.5483 109.551C83.3627 109.729 83.1392 109.818 82.8778 109.818ZM89.2884 120.182C88.5611 120.182 87.919 119.998 87.3622 119.631C86.8054 119.259 86.3698 118.737 86.0554 118.062C85.741 117.384 85.5838 116.583 85.5838 115.659C85.5838 114.742 85.741 113.947 86.0554 113.273C86.3698 112.598 86.8073 112.078 87.3679 111.71C87.9285 111.343 88.5762 111.159 89.3111 111.159C89.8793 111.159 90.3281 111.254 90.6577 111.443C90.991 111.629 91.2448 111.841 91.419 112.08C91.5971 112.314 91.7353 112.508 91.8338 112.659H91.9474V108.364H93.2884V120H91.9929V118.659H91.8338C91.7353 118.818 91.5952 119.019 91.4134 119.261C91.2315 119.5 90.9721 119.714 90.6349 119.903C90.2978 120.089 89.849 120.182 89.2884 120.182ZM89.4702 118.977C90.008 118.977 90.4626 118.837 90.8338 118.557C91.205 118.273 91.4872 117.881 91.6804 117.381C91.8736 116.877 91.9702 116.295 91.9702 115.636C91.9702 114.985 91.8755 114.415 91.6861 113.926C91.4967 113.434 91.2164 113.051 90.8452 112.778C90.474 112.502 90.0156 112.364 89.4702 112.364C88.902 112.364 88.4285 112.509 88.0497 112.801C87.6747 113.089 87.3925 113.481 87.2031 113.977C87.0175 114.47 86.9247 115.023 86.9247 115.636C86.9247 116.258 87.0194 116.822 87.2088 117.33C87.402 117.833 87.6861 118.235 88.0611 118.534C88.4399 118.83 88.9096 118.977 89.4702 118.977ZM99.5895 120.182C98.7486 120.182 98.0232 119.996 97.4134 119.625C96.8073 119.25 96.3395 118.727 96.0099 118.057C95.6842 117.383 95.5213 116.598 95.5213 115.705C95.5213 114.811 95.6842 114.023 96.0099 113.341C96.3395 112.655 96.7978 112.121 97.3849 111.739C97.9759 111.352 98.6652 111.159 99.4531 111.159C99.9077 111.159 100.357 111.235 100.8 111.386C101.243 111.538 101.646 111.784 102.01 112.125C102.374 112.462 102.663 112.909 102.879 113.466C103.095 114.023 103.203 114.708 103.203 115.523V116.091H96.4759V114.932H101.839C101.839 114.439 101.741 114 101.544 113.614C101.351 113.227 101.074 112.922 100.714 112.699C100.358 112.475 99.938 112.364 99.4531 112.364C98.919 112.364 98.4569 112.496 98.0668 112.761C97.6804 113.023 97.383 113.364 97.1747 113.784C96.9664 114.205 96.8622 114.655 96.8622 115.136V115.909C96.8622 116.568 96.9759 117.127 97.2031 117.585C97.4342 118.04 97.7543 118.386 98.1634 118.625C98.5724 118.86 99.0478 118.977 99.5895 118.977C99.9418 118.977 100.26 118.928 100.544 118.83C100.832 118.727 101.08 118.576 101.288 118.375C101.497 118.17 101.658 117.917 101.771 117.614L103.067 117.977C102.93 118.417 102.701 118.803 102.379 119.136C102.057 119.466 101.66 119.723 101.186 119.909C100.713 120.091 100.18 120.182 99.5895 120.182ZM108.788 120.182C108 120.182 107.309 119.994 106.714 119.619C106.124 119.244 105.661 118.72 105.328 118.045C104.999 117.371 104.834 116.583 104.834 115.682C104.834 114.773 104.999 113.979 105.328 113.301C105.661 112.623 106.124 112.097 106.714 111.722C107.309 111.347 108 111.159 108.788 111.159C109.576 111.159 110.266 111.347 110.857 111.722C111.451 112.097 111.913 112.623 112.243 113.301C112.576 113.979 112.743 114.773 112.743 115.682C112.743 116.583 112.576 117.371 112.243 118.045C111.913 118.72 111.451 119.244 110.857 119.619C110.266 119.994 109.576 120.182 108.788 120.182ZM108.788 118.977C109.387 118.977 109.879 118.824 110.266 118.517C110.652 118.21 110.938 117.807 111.124 117.307C111.309 116.807 111.402 116.265 111.402 115.682C111.402 115.098 111.309 114.555 111.124 114.051C110.938 113.547 110.652 113.14 110.266 112.83C109.879 112.519 109.387 112.364 108.788 112.364C108.19 112.364 107.697 112.519 107.311 112.83C106.925 113.14 106.639 113.547 106.453 114.051C106.268 114.555 106.175 115.098 106.175 115.682C106.175 116.265 106.268 116.807 106.453 117.307C106.639 117.807 106.925 118.21 107.311 118.517C107.697 118.824 108.19 118.977 108.788 118.977ZM123.085 111.273V112.409H118.562V111.273H123.085ZM119.881 109.182H121.222V117.5C121.222 117.879 121.277 118.163 121.386 118.352C121.5 118.538 121.644 118.663 121.818 118.727C121.996 118.788 122.184 118.818 122.381 118.818C122.528 118.818 122.65 118.811 122.744 118.795C122.839 118.777 122.915 118.761 122.972 118.75L123.244 119.955C123.153 119.989 123.027 120.023 122.864 120.057C122.701 120.095 122.494 120.114 122.244 120.114C121.866 120.114 121.494 120.032 121.131 119.869C120.771 119.706 120.472 119.458 120.233 119.125C119.998 118.792 119.881 118.371 119.881 117.864V109.182ZM128.554 120.182C127.766 120.182 127.075 119.994 126.48 119.619C125.889 119.244 125.427 118.72 125.094 118.045C124.764 117.371 124.599 116.583 124.599 115.682C124.599 114.773 124.764 113.979 125.094 113.301C125.427 112.623 125.889 112.097 126.48 111.722C127.075 111.347 127.766 111.159 128.554 111.159C129.342 111.159 130.031 111.347 130.622 111.722C131.217 112.097 131.679 112.623 132.009 113.301C132.342 113.979 132.509 114.773 132.509 115.682C132.509 116.583 132.342 117.371 132.009 118.045C131.679 118.72 131.217 119.244 130.622 119.619C130.031 119.994 129.342 120.182 128.554 120.182ZM128.554 118.977C129.152 118.977 129.645 118.824 130.031 118.517C130.418 118.21 130.704 117.807 130.889 117.307C131.075 116.807 131.168 116.265 131.168 115.682C131.168 115.098 131.075 114.555 130.889 114.051C130.704 113.547 130.418 113.14 130.031 112.83C129.645 112.519 129.152 112.364 128.554 112.364C127.955 112.364 127.463 112.519 127.077 112.83C126.69 113.14 126.404 113.547 126.219 114.051C126.033 114.555 125.94 115.098 125.94 115.682C125.94 116.265 126.033 116.807 126.219 117.307C126.404 117.807 126.69 118.21 127.077 118.517C127.463 118.824 127.955 118.977 128.554 118.977ZM142.578 123.455C141.93 123.455 141.374 123.371 140.908 123.205C140.442 123.042 140.054 122.826 139.743 122.557C139.436 122.292 139.192 122.008 139.01 121.705L140.078 120.955C140.199 121.114 140.353 121.295 140.538 121.5C140.724 121.708 140.978 121.888 141.3 122.04C141.625 122.195 142.052 122.273 142.578 122.273C143.283 122.273 143.864 122.102 144.322 121.761C144.781 121.42 145.01 120.886 145.01 120.159V118.386H144.896C144.798 118.545 144.658 118.742 144.476 118.977C144.298 119.208 144.04 119.415 143.703 119.597C143.37 119.775 142.919 119.864 142.351 119.864C141.646 119.864 141.014 119.697 140.453 119.364C139.896 119.03 139.455 118.545 139.129 117.909C138.807 117.273 138.646 116.5 138.646 115.591C138.646 114.697 138.804 113.919 139.118 113.256C139.432 112.589 139.87 112.074 140.43 111.71C140.991 111.343 141.639 111.159 142.374 111.159C142.942 111.159 143.393 111.254 143.726 111.443C144.063 111.629 144.321 111.841 144.499 112.08C144.68 112.314 144.821 112.508 144.919 112.659H145.055V111.273H146.351V120.25C146.351 121 146.18 121.61 145.839 122.08C145.502 122.553 145.048 122.9 144.476 123.119C143.908 123.343 143.275 123.455 142.578 123.455ZM142.533 118.659C143.071 118.659 143.525 118.536 143.896 118.29C144.268 118.044 144.55 117.689 144.743 117.227C144.936 116.765 145.033 116.212 145.033 115.568C145.033 114.939 144.938 114.384 144.749 113.903C144.559 113.422 144.279 113.045 143.908 112.773C143.536 112.5 143.078 112.364 142.533 112.364C141.964 112.364 141.491 112.508 141.112 112.795C140.737 113.083 140.455 113.47 140.266 113.955C140.08 114.439 139.987 114.977 139.987 115.568C139.987 116.174 140.082 116.71 140.271 117.176C140.464 117.638 140.749 118.002 141.124 118.267C141.502 118.528 141.972 118.659 142.533 118.659ZM152.464 120.182C151.624 120.182 150.898 119.996 150.288 119.625C149.682 119.25 149.214 118.727 148.885 118.057C148.559 117.383 148.396 116.598 148.396 115.705C148.396 114.811 148.559 114.023 148.885 113.341C149.214 112.655 149.673 112.121 150.26 111.739C150.851 111.352 151.54 111.159 152.328 111.159C152.783 111.159 153.232 111.235 153.675 111.386C154.118 111.538 154.521 111.784 154.885 112.125C155.249 112.462 155.538 112.909 155.754 113.466C155.97 114.023 156.078 114.708 156.078 115.523V116.091H149.351V114.932H154.714C154.714 114.439 154.616 114 154.419 113.614C154.226 113.227 153.949 112.922 153.589 112.699C153.233 112.475 152.813 112.364 152.328 112.364C151.794 112.364 151.332 112.496 150.942 112.761C150.555 113.023 150.258 113.364 150.05 113.784C149.841 114.205 149.737 114.655 149.737 115.136V115.909C149.737 116.568 149.851 117.127 150.078 117.585C150.309 118.04 150.629 118.386 151.038 118.625C151.447 118.86 151.923 118.977 152.464 118.977C152.817 118.977 153.135 118.928 153.419 118.83C153.707 118.727 153.955 118.576 154.163 118.375C154.372 118.17 154.533 117.917 154.646 117.614L155.942 117.977C155.805 118.417 155.576 118.803 155.254 119.136C154.932 119.466 154.535 119.723 154.061 119.909C153.588 120.091 153.055 120.182 152.464 120.182ZM161.913 111.273V112.409H157.391V111.273H161.913ZM158.709 109.182H160.05V117.5C160.05 117.879 160.105 118.163 160.214 118.352C160.328 118.538 160.472 118.663 160.646 118.727C160.824 118.788 161.012 118.818 161.209 118.818C161.357 118.818 161.478 118.811 161.572 118.795C161.667 118.777 161.743 118.761 161.8 118.75L162.072 119.955C161.982 119.989 161.855 120.023 161.692 120.057C161.529 120.095 161.322 120.114 161.072 120.114C160.694 120.114 160.322 120.032 159.959 119.869C159.599 119.706 159.3 119.458 159.061 119.125C158.826 118.792 158.709 118.371 158.709 117.864V109.182ZM174.612 113.227L173.408 113.568C173.332 113.367 173.22 113.172 173.072 112.983C172.929 112.79 172.732 112.631 172.482 112.506C172.232 112.381 171.911 112.318 171.521 112.318C170.987 112.318 170.542 112.441 170.186 112.688C169.834 112.93 169.658 113.239 169.658 113.614C169.658 113.947 169.779 114.21 170.021 114.403C170.264 114.597 170.643 114.758 171.158 114.886L172.453 115.205C173.233 115.394 173.815 115.684 174.197 116.074C174.58 116.46 174.771 116.958 174.771 117.568C174.771 118.068 174.627 118.515 174.339 118.909C174.055 119.303 173.658 119.614 173.146 119.841C172.635 120.068 172.04 120.182 171.362 120.182C170.472 120.182 169.735 119.989 169.152 119.602C168.569 119.216 168.199 118.652 168.044 117.909L169.317 117.591C169.438 118.061 169.667 118.413 170.004 118.648C170.345 118.883 170.79 119 171.339 119C171.964 119 172.461 118.867 172.828 118.602C173.199 118.333 173.385 118.011 173.385 117.636C173.385 117.333 173.279 117.08 173.067 116.875C172.855 116.667 172.529 116.511 172.089 116.409L170.635 116.068C169.836 115.879 169.249 115.585 168.874 115.188C168.502 114.786 168.317 114.284 168.317 113.682C168.317 113.189 168.455 112.754 168.732 112.375C169.012 111.996 169.393 111.699 169.874 111.483C170.358 111.267 170.908 111.159 171.521 111.159C172.385 111.159 173.063 111.348 173.555 111.727C174.052 112.106 174.404 112.606 174.612 113.227ZM180.585 111.273V112.409H176.062V111.273H180.585ZM177.381 109.182H178.722V117.5C178.722 117.879 178.777 118.163 178.886 118.352C179 118.538 179.144 118.663 179.318 118.727C179.496 118.788 179.684 118.818 179.881 118.818C180.028 118.818 180.15 118.811 180.244 118.795C180.339 118.777 180.415 118.761 180.472 118.75L180.744 119.955C180.653 119.989 180.527 120.023 180.364 120.057C180.201 120.095 179.994 120.114 179.744 120.114C179.366 120.114 178.994 120.032 178.631 119.869C178.271 119.706 177.972 119.458 177.733 119.125C177.498 118.792 177.381 118.371 177.381 117.864V109.182ZM185.17 120.205C184.617 120.205 184.116 120.1 183.665 119.892C183.214 119.68 182.856 119.375 182.591 118.977C182.326 118.576 182.193 118.091 182.193 117.523C182.193 117.023 182.292 116.617 182.489 116.307C182.686 115.992 182.949 115.746 183.278 115.568C183.608 115.39 183.972 115.258 184.369 115.17C184.771 115.08 185.174 115.008 185.58 114.955C186.11 114.886 186.54 114.835 186.869 114.801C187.203 114.763 187.445 114.701 187.597 114.614C187.752 114.527 187.83 114.375 187.83 114.159V114.114C187.83 113.553 187.676 113.117 187.369 112.807C187.066 112.496 186.606 112.341 185.989 112.341C185.348 112.341 184.847 112.481 184.483 112.761C184.119 113.042 183.864 113.341 183.716 113.659L182.443 113.205C182.67 112.674 182.973 112.261 183.352 111.966C183.735 111.667 184.152 111.458 184.602 111.341C185.057 111.22 185.504 111.159 185.943 111.159C186.223 111.159 186.545 111.193 186.909 111.261C187.277 111.326 187.631 111.46 187.972 111.665C188.316 111.869 188.602 112.178 188.83 112.591C189.057 113.004 189.17 113.557 189.17 114.25V120H187.83V118.818H187.761C187.67 119.008 187.519 119.21 187.307 119.426C187.095 119.642 186.813 119.826 186.46 119.977C186.108 120.129 185.678 120.205 185.17 120.205ZM185.375 119C185.905 119 186.352 118.896 186.716 118.688C187.083 118.479 187.36 118.21 187.545 117.881C187.735 117.551 187.83 117.205 187.83 116.841V115.614C187.773 115.682 187.648 115.744 187.455 115.801C187.265 115.854 187.045 115.902 186.795 115.943C186.549 115.981 186.309 116.015 186.074 116.045C185.843 116.072 185.655 116.095 185.511 116.114C185.163 116.159 184.837 116.233 184.534 116.335C184.235 116.434 183.992 116.583 183.807 116.784C183.625 116.981 183.534 117.25 183.534 117.591C183.534 118.057 183.706 118.409 184.051 118.648C184.4 118.883 184.841 119 185.375 119ZM191.618 120V111.273H192.913V112.591H193.004C193.163 112.159 193.451 111.809 193.868 111.54C194.285 111.271 194.754 111.136 195.277 111.136C195.375 111.136 195.499 111.138 195.646 111.142C195.794 111.146 195.906 111.152 195.982 111.159V112.523C195.936 112.511 195.832 112.494 195.669 112.472C195.51 112.445 195.341 112.432 195.163 112.432C194.739 112.432 194.36 112.521 194.027 112.699C193.697 112.873 193.436 113.116 193.243 113.426C193.054 113.733 192.959 114.083 192.959 114.477V120H191.618ZM201.913 111.273V112.409H197.391V111.273H201.913ZM198.709 109.182H200.05V117.5C200.05 117.879 200.105 118.163 200.214 118.352C200.328 118.538 200.472 118.663 200.646 118.727C200.824 118.788 201.012 118.818 201.209 118.818C201.357 118.818 201.478 118.811 201.572 118.795C201.667 118.777 201.743 118.761 201.8 118.75L202.072 119.955C201.982 119.989 201.855 120.023 201.692 120.057C201.529 120.095 201.322 120.114 201.072 120.114C200.694 120.114 200.322 120.032 199.959 119.869C199.599 119.706 199.3 119.458 199.061 119.125C198.826 118.792 198.709 118.371 198.709 117.864V109.182ZM207.496 120.182C206.655 120.182 205.929 119.996 205.32 119.625C204.714 119.25 204.246 118.727 203.916 118.057C203.59 117.383 203.428 116.598 203.428 115.705C203.428 114.811 203.59 114.023 203.916 113.341C204.246 112.655 204.704 112.121 205.291 111.739C205.882 111.352 206.571 111.159 207.359 111.159C207.814 111.159 208.263 111.235 208.706 111.386C209.149 111.538 209.553 111.784 209.916 112.125C210.28 112.462 210.57 112.909 210.786 113.466C211.001 114.023 211.109 114.708 211.109 115.523V116.091H204.382V114.932H209.746C209.746 114.439 209.647 114 209.45 113.614C209.257 113.227 208.981 112.922 208.621 112.699C208.265 112.475 207.844 112.364 207.359 112.364C206.825 112.364 206.363 112.496 205.973 112.761C205.587 113.023 205.289 113.364 205.081 113.784C204.873 114.205 204.768 114.655 204.768 115.136V115.909C204.768 116.568 204.882 117.127 205.109 117.585C205.34 118.04 205.661 118.386 206.07 118.625C206.479 118.86 206.954 118.977 207.496 118.977C207.848 118.977 208.166 118.928 208.45 118.83C208.738 118.727 208.986 118.576 209.195 118.375C209.403 118.17 209.564 117.917 209.678 117.614L210.973 117.977C210.837 118.417 210.607 118.803 210.286 119.136C209.964 119.466 209.566 119.723 209.092 119.909C208.619 120.091 208.087 120.182 207.496 120.182ZM216.445 120.182C215.717 120.182 215.075 119.998 214.518 119.631C213.962 119.259 213.526 118.737 213.212 118.062C212.897 117.384 212.74 116.583 212.74 115.659C212.74 114.742 212.897 113.947 213.212 113.273C213.526 112.598 213.964 112.078 214.524 111.71C215.085 111.343 215.732 111.159 216.467 111.159C217.036 111.159 217.484 111.254 217.814 111.443C218.147 111.629 218.401 111.841 218.575 112.08C218.753 112.314 218.892 112.508 218.99 112.659H219.104V108.364H220.445V120H219.149V118.659H218.99C218.892 118.818 218.751 119.019 218.57 119.261C218.388 119.5 218.128 119.714 217.791 119.903C217.454 120.089 217.005 120.182 216.445 120.182ZM216.626 118.977C217.164 118.977 217.619 118.837 217.99 118.557C218.361 118.273 218.643 117.881 218.837 117.381C219.03 116.877 219.126 116.295 219.126 115.636C219.126 114.985 219.032 114.415 218.842 113.926C218.653 113.434 218.373 113.051 218.001 112.778C217.63 112.502 217.172 112.364 216.626 112.364C216.058 112.364 215.585 112.509 215.206 112.801C214.831 113.089 214.549 113.481 214.359 113.977C214.174 114.47 214.081 115.023 214.081 115.636C214.081 116.258 214.176 116.822 214.365 117.33C214.558 117.833 214.842 118.235 215.217 118.534C215.596 118.83 216.066 118.977 216.626 118.977Z" fill="black"/>
<path d="M98.0843 68.4663V42.6798L89.4888 51.2753" stroke="black" stroke-width="6.44663" stroke-linecap="round" stroke-linejoin="round"/>
<path d="M98.0842 42.6798L106.68 51.2753" stroke="black" stroke-width="6.44663" stroke-linecap="round" stroke-linejoin="round"/>
<path d="M153.955 38.382V59.8708C153.955 81.3596 145.36 89.9551 123.871 89.9551H98.0843C76.5955 89.9551 68 81.3596 68 59.8708V34.0843C68 12.5955 76.5955 4 98.0843 4H119.573" stroke="black" stroke-width="6.44663" stroke-linecap="round" stroke-linejoin="round"/>
<path d="M153.955 38.382H136.764C123.871 38.382 119.573 34.0843 119.573 21.191V4L153.955 38.382Z" stroke="black" stroke-width="6.44663" stroke-linecap="round" stroke-linejoin="round"/>
</svg>
